<svg xmlns="http://www.w3.org/2000/svg" width="32" height="32" viewBox="0 0 32 32">
    <g id="Group_18151" data-name="Group 18151" transform="translate(111.238 199.499)">
        <path id="Path_91654" data-name="Path 91654" d="M-68.783-185.98a1.035,1.035,0,0,0-.027-.138,13.673,13.673,0,0,1-.864-6.592,7.645,7.645,0,0,1,1.108-3.449,3.293,3.293,0,0,1,3.313-1.63,4.88,4.88,0,0,1,2.363.978,13.177,13.177,0,0,1,4.642,6.6c.071.206.129.417.2.635.072-.02.122-.031.17-.047,1.693-.565,3.388-1.126,5.079-1.7a.976.976,0,0,0,.585-1.6,11.4,11.4,0,0,0-11.434-5.407c-.717.079-1.427.231-2.166.353-.086-.253-.175-.52-.267-.786a.955.955,0,0,0-1.224-.684.956.956,0,0,0-.572,1.281c.088.275.178.549.238.735-1,.59-2,1.075-2.885,1.721a11.074,11.074,0,0,0-4.9,10.64.941.941,0,0,0,1.318.865c.829-.269,1.653-.549,2.48-.825Zm8.9-2.976c-.022-.117-.032-.2-.054-.278a11.457,11.457,0,0,0-3.46-5.57,4.383,4.383,0,0,0-1.809-1.052,1.355,1.355,0,0,0-1.594.518,5.53,5.53,0,0,0-.723,1.487,10.5,10.5,0,0,0-.1,5.148c.15.712.4,1.4.606,2.13Z" transform="translate(-32.721)" fill="#cbcbcb"/>
        <path id="Path_91655" data-name="Path 91655" d="M-79.238-24.441a1.2,1.2,0,0,1-1.259.7q-14.778-.018-29.557-.008c-.749,0-1.185-.348-1.185-.947s.436-.946,1.186-.946c1.6,0,3.208-.005,4.811.006.232,0,.345-.052.418-.292q.587-1.91,1.215-3.807a.342.342,0,0,0-.163-.459q-3.464-2.508-6.922-5.025a.971.971,0,0,1-.462-1.023.93.93,0,0,1,1.492-.559c1.156.826,2.3,1.667,3.449,2.5q1.939,1.409,3.88,2.815a.733.733,0,0,0,.389.153q4.421.012,8.842,0a.865.865,0,0,0,.106-.02l-3.573-10.774,1.769-.6c.1.3.2.573.291.848q1.7,5.106,3.381,10.216a.41.41,0,0,0,.479.339c1.833-.013,3.666.005,5.5-.014a1.162,1.162,0,0,1,1.175.743c.755,1.568,1.541,3.12,2.305,4.683a.382.382,0,0,0,.423.266c.248-.021.5.014.749-.009a1.135,1.135,0,0,1,1.259.7Zm-11.871-1.209c-.407-1.231-.8-2.436-1.213-3.634-.025-.073-.191-.137-.292-.137-2.958-.007-5.916,0-8.874-.011-.207,0-.283.073-.341.264-.279.913-.575,1.82-.865,2.73-.082.256-.161.513-.248.789Zm.75-3.777a1.665,1.665,0,0,0,.036.17c.375,1.135.759,2.268,1.122,3.407.066.208.184.212.348.211q2.468,0,4.937,0c.077,0,.155-.008.243-.013a.6.6,0,0,0-.024-.118c-.575-1.166-1.148-2.332-1.735-3.492a.384.384,0,0,0-.287-.156c-.458-.017-.916-.007-1.374-.007Z" transform="translate(0 -143.761)" fill="#cbcbcb"/>
        <path id="Path_91656" data-name="Path 91656" d="M-68.783-185.98l-2.851.952c-.826.276-1.651.556-2.48.825a.941.941,0,0,1-1.318-.865,11.074,11.074,0,0,1,4.9-10.64c.884-.646,1.885-1.131,2.885-1.721-.06-.186-.15-.461-.238-.735a.956.956,0,0,1,.572-1.281.955.955,0,0,1,1.224.684c.092.266.181.533.267.786.739-.122,1.448-.274,2.166-.353a11.4,11.4,0,0,1,11.434,5.407.976.976,0,0,1-.585,1.6c-1.691.57-3.386,1.132-5.079,1.7-.048.016-.1.027-.17.047-.067-.218-.125-.428-.2-.635a13.177,13.177,0,0,0-4.642-6.6,4.88,4.88,0,0,0-2.363-.978,3.293,3.293,0,0,0-3.313,1.63,7.645,7.645,0,0,0-1.108,3.449,13.673,13.673,0,0,0,.864,6.592A1.035,1.035,0,0,1-68.783-185.98Z" transform="translate(-32.721)" fill="#cbcbcb"/>
        <path id="Path_91657" data-name="Path 91657" d="M22.808-150.14l-7.129,2.384c-.21-.728-.457-1.419-.606-2.13a10.5,10.5,0,0,1,.1-5.148,5.53,5.53,0,0,1,.723-1.487,1.355,1.355,0,0,1,1.594-.518,4.383,4.383,0,0,1,1.809,1.052,11.457,11.457,0,0,1,3.46,5.57C22.776-150.339,22.786-150.256,22.808-150.14Z" transform="translate(-115.547 -38.817)" fill="#cbcbcb"/>
    </g>
</svg>
