<svg xmlns="http://www.w3.org/2000/svg" width="20.091" height="20.09" viewBox="0 0 20.091 20.09">
    <path id="Path_687" data-name="Path 687" d="M23.09,17.978v3.947a1.116,1.116,0,0,1-1.038,1.114c-.488.033-.886.051-1.194.051A17.857,17.857,0,0,1,3,5.232q0-.462.051-1.194A1.116,1.116,0,0,1,4.165,3H8.112a.558.558,0,0,1,.556.5c.026.257.049.461.071.616a15.515,15.515,0,0,0,1.348,4.466.509.509,0,0,1-.164.633L7.515,10.938a14.562,14.562,0,0,0,7.639,7.639l1.719-2.4a.516.516,0,0,1,.64-.166,15.515,15.515,0,0,0,4.465,1.345c.155.022.359.047.614.071a.558.558,0,0,1,.5.556Z" transform="translate(-3 -3)" fill="#5399ff"/>
</svg>
