<svg id="Group_18149" data-name="Group 18149" xmlns="http://www.w3.org/2000/svg" width="32" height="32"
     viewBox="0 0 32 32">
    <path id="Path_91648" data-name="Path 91648" d="M0,0H32V32H0Z" fill="none"/>
    <path id="Path_91649" data-name="Path 91649"
          d="M.69,8.329a24,24,0,0,1,30.16,0L28.337,11.44a20,20,0,0,0-25.133,0Zm4.188,5.187a17.337,17.337,0,0,1,21.784,0l-2.513,3.112a13.338,13.338,0,0,0-16.757,0L4.878,13.515ZM9.067,18.7a10.668,10.668,0,0,1,13.405,0l-2.513,3.112a6.669,6.669,0,0,0-8.379,0L9.067,18.7Zm4.189,5.187a4,4,0,0,1,5.027,0L15.77,27l-2.513-3.112Z"
          transform="translate(0.23 1)" fill="#5399ff"/>
</svg>
