<svg id="Group_398" data-name="Group 398" xmlns="http://www.w3.org/2000/svg" width="32" height="32" viewBox="0 0 32 32">
    <path id="Path_689" data-name="Path 689" d="M0,0H32V32H0Z" fill="none"/>
    <path id="Path_690" data-name="Path 690" d="M7.136,29a6.3,6.3,0,0,1,0-12.6,6.3,6.3,0,0,1,0,12.6Zm0-2.8a3.5,3.5,0,0,0,0-7,3.5,3.5,0,0,0,0,7ZM24.864,29A6.3,6.3,0,1,1,31,22.7,6.22,6.22,0,0,1,24.864,29Zm0-2.8a3.5,3.5,0,1,0-3.409-3.5A3.455,3.455,0,0,0,24.864,26.2Zm-10.2-12.173,2.7,2.373v8.4H14.636v-7l-3.708-3.172a2.815,2.815,0,0,1-1.171-2.052,2.844,2.844,0,0,1,.788-2.236L14.4,6.38a2.677,2.677,0,0,1,3.858,0l1.928,1.98a9.416,9.416,0,0,0,5.341,2.765l-.014,2.821a12.1,12.1,0,0,1-7.256-3.6l-3.592,3.686ZM21.455,6.6a2.764,2.764,0,0,1-2.727-2.8,2.728,2.728,0,1,1,5.455,0A2.764,2.764,0,0,1,21.455,6.6Z" fill="#cbcbcb"/>
</svg>
