<svg xmlns="http://www.w3.org/2000/svg" width="20.09" height="25.005" viewBox="0 0 20.09 25.005">
    <path id="Path_683" data-name="Path 683" d="M20.148,19.681,13.045,27l-7.1-7.324a10.586,10.586,0,0,1,0-14.647,9.832,9.832,0,0,1,14.206,0,10.586,10.586,0,0,1,0,14.647Zm-7.1-2.721a4.535,4.535,0,0,0,4.464-4.6,4.535,4.535,0,0,0-4.464-4.6,4.535,4.535,0,0,0-4.464,4.6A4.535,4.535,0,0,0,13.045,16.961Zm0-2.3a2.3,2.3,0,1,1,2.232-2.3A2.268,2.268,0,0,1,13.045,14.659Z" transform="translate(-3 -2)" fill="#5399ff"/>
</svg>
