<svg xmlns="http://www.w3.org/2000/svg" width="26.667" height="24" viewBox="0 0 26.667 24">
    <path id="Path_696" data-name="Path 696" d="M24.667,25.333H6v1.333A1.333,1.333,0,0,1,4.667,28H3.333A1.333,1.333,0,0,1,2,26.667v-12L5.351,5.731A2.667,2.667,0,0,1,7.848,4H22.819a2.667,2.667,0,0,1,2.5,1.731l3.351,8.936v12A1.333,1.333,0,0,1,27.333,28H26a1.333,1.333,0,0,1-1.333-1.333ZM4.848,14.667H25.819l-3-8H7.848ZM8,21.333a2,2,0,1,0-2-2A2,2,0,0,0,8,21.333Zm14.667,0a2,2,0,1,0-2-2A2,2,0,0,0,22.667,21.333Z" transform="translate(-2 -4)" fill="#5399ff"/>
</svg>
