<svg xmlns="http://www.w3.org/2000/svg" width="32" height="24.518" viewBox="0 0 32 24.518">
    <g id="Group_18150" data-name="Group 18150" transform="translate(111.334 113.453)">
        <path id="Path_91650" data-name="Path 91650" d="M5.6-99.186a4.336,4.336,0,0,0,5.755.241,4.213,4.213,0,0,0,1.019-5.218,4.208,4.208,0,0,0-4.9-2.059,4.107,4.107,0,0,0-2.3,1.685,4.471,4.471,0,0,0-.553,3.775l-3.5-5.651c.127-.04.206-.066.286-.089,1.72-.5,3.441-.992,5.16-1.5a2.784,2.784,0,0,0,1.968-3.489,2.772,2.772,0,0,0-3.5-1.845q-4.083,1.173-8.163,2.356a3.4,3.4,0,0,0-2.012,5.223q1.136,1.834,2.275,3.667c.058.094.113.19.177.3L-7.017-99.1a.907.907,0,0,0,.342.081c1.388.148,2.786.237,4.162.459,2.416.39,4.817.873,7.228,1.29.7.121,1.418.15,2.211.229Z" transform="translate(-95.649)" fill="#cbcbcb"/>
        <path id="Path_91651" data-name="Path 91651" d="M-79.334,83.193a1.265,1.265,0,0,1-.979.764,29.194,29.194,0,0,1-8.379.918,40.687,40.687,0,0,1-5.812-.761c-2.013-.377-4.026-.769-6.053-1.048a22.871,22.871,0,0,0-9.243.714,3.346,3.346,0,0,1-.454.11.93.93,0,0,1-1.056-.718.918.918,0,0,1,.655-1.1c1.12-.273,2.242-.549,3.376-.753a20.413,20.413,0,0,1,5.724-.244c1.642.17,3.276.443,4.907.707,2.021.328,4.028.757,6.056,1.031a25.484,25.484,0,0,0,9.691-.656l.152-.037c.764-.188,1.068-.052,1.415.63Z" transform="translate(0 -178.207)" fill="#cbcbcb"/>
        <path id="Path_91652" data-name="Path 91652" d="M-79.334,135.588a1.265,1.265,0,0,1-.979.764,29.2,29.2,0,0,1-8.379.918,40.694,40.694,0,0,1-5.812-.761c-2.013-.377-4.026-.769-6.053-1.048a22.871,22.871,0,0,0-9.243.715,3.314,3.314,0,0,1-.454.11.93.93,0,0,1-1.055-.718.918.918,0,0,1,.656-1.1c1.12-.273,2.242-.549,3.376-.754a20.464,20.464,0,0,1,5.755-.243c1.632.169,3.255.441,4.876.706,2.011.328,4.007.757,6.024,1.031a25.508,25.508,0,0,0,9.722-.655l.152-.037c.764-.188,1.068-.052,1.415.63Z" transform="translate(0 -226.228)" fill="#cbcbcb"/>
        <path id="Path_91653" data-name="Path 91653" d="M5.6-99.186l1.323,2.14c-.794-.079-1.511-.108-2.211-.229-2.412-.417-4.812-.9-7.228-1.29-1.376-.222-2.774-.311-4.162-.459a.907.907,0,0,1-.342-.081l4.322-2.687c-.063-.106-.118-.2-.177-.3q-1.137-1.833-2.275-3.667a3.4,3.4,0,0,1,2.012-5.223q4.08-1.183,8.163-2.356a2.772,2.772,0,0,1,3.5,1.845A2.784,2.784,0,0,1,6.564-108c-1.719.5-3.44,1-5.16,1.5-.08.023-.158.049-.286.089l3.5,5.651a4.471,4.471,0,0,1,.553-3.775,4.107,4.107,0,0,1,2.3-1.685,4.208,4.208,0,0,1,4.9,2.059,4.213,4.213,0,0,1-1.019,5.218A4.336,4.336,0,0,1,5.6-99.186Z" transform="translate(-95.649)" fill="#cbcbcb"/>
    </g>
</svg>
