<svg xmlns="http://www.w3.org/2000/svg" width="32" height="32.004" viewBox="0 0 32 32.004">
    <g id="Group_18154" data-name="Group 18154" transform="translate(124.113 170.169)">
        <path id="Path_91658" data-name="Path 91658" d="M-74.861-152.975c0-.133,0-.237,0-.341-.022-.495-.021-.992-.074-1.483a14.8,14.8,0,0,0-4.138-8.912,2.01,2.01,0,0,0-.492-.379,1.833,1.833,0,0,0-2.541.712c-1.069,1.619-2.127,3.245-3.2,4.86a1.34,1.34,0,0,1-.472.426c-.957.5-1.925.987-2.89,1.475a1.893,1.893,0,0,0-1.137,1.648A1.884,1.884,0,0,0-87.03-153.2c1.181-.615,2.374-1.2,3.56-1.81a2.331,2.331,0,0,0,.915-.833c.67-1.04,1.354-2.071,2.034-3.105.061-.093.127-.184.2-.292a10.749,10.749,0,0,1,1.328,3.015,11.9,11.9,0,0,1,.4,3.253Zm-8.436,5.706v-3.77h-9.533a5.037,5.037,0,0,1-.751,3.638,11.878,11.878,0,0,0,1.2.128c2.928.009,5.857,0,8.785,0Zm1.891-20a2.905,2.905,0,0,0-2.8-2.9,2.906,2.906,0,0,0-2.808,2.917,2.905,2.905,0,0,0,2.8,2.9A2.906,2.906,0,0,0-81.407-167.271Zm-13.212,17.2a2.844,2.844,0,0,0-2.748-2.89,2.838,2.838,0,0,0-2.854,2.782,2.845,2.845,0,0,0,2.762,2.906A2.842,2.842,0,0,0-94.619-150.068Z" transform="translate(-21.998)" fill="#5399ff"/>
        <path id="Path_91659" data-name="Path 91659" d="M147.223,84.2c-.876-.375-.685-1.166-.693-1.9-.915,0-1.8.033-2.679-.013a3.9,3.9,0,0,1-1.4-.3,2.64,2.64,0,0,1-1.607-2.517c-.026-2.814-.009-5.628-.008-8.443a.682.682,0,0,1,.027-.119h.242q4.063,0,8.126,0a2.812,2.812,0,0,1,2.7,1.634,5.981,5.981,0,0,1,.287.9v6.327a.323.323,0,0,0-.04.086,2.864,2.864,0,0,1-3.011,2.446c-.239-.008-.479,0-.741,0-.029.728.183,1.526-.7,1.9Z" transform="translate(-244.335 -222.368)" fill="#5399ff"/>
        <path id="Path_91660" data-name="Path 91660" d="M-119.628,150.379a1.192,1.192,0,0,1-.7-1.275c.032-.829.008-1.659.008-2.522-.637,0-1.245.008-1.853,0a1.891,1.891,0,0,1-1.855-1.35,1.88,1.88,0,0,1,1.445-2.4,2.784,2.784,0,0,1,.534-.045q8.363,0,16.725,0h.3v3.786h-13.374c-.008.108-.019.2-.019.288,0,.748-.026,1.5.007,2.244a1.188,1.188,0,0,1-.7,1.275Z" transform="translate(0 -288.544)" fill="#5399ff"/>
        <path id="Path_91661" data-name="Path 91661" d="M48.357-85.283H44.565a11.732,11.732,0,0,0-.4-3.253,10.667,10.667,0,0,0-1.348-3.015c-.077.109-.143.2-.206.292-.69,1.034-1.385,2.065-2.065,3.105a2.354,2.354,0,0,1-.929.833c-1.2.606-2.415,1.2-3.614,1.81a1.91,1.91,0,0,1-2.819-1.767,1.894,1.894,0,0,1,1.155-1.648c.98-.488,1.963-.971,2.934-1.475a1.354,1.354,0,0,0,.479-.427c1.091-1.615,2.165-3.241,3.25-4.86a1.876,1.876,0,0,1,2.58-.712,2.037,2.037,0,0,1,.5.379,14.7,14.7,0,0,1,4.2,8.912c.053.491.053.989.075,1.483C48.361-85.52,48.357-85.416,48.357-85.283Z" transform="translate(-145.216 -67.8)" fill="#5399ff"/>
        <path id="Path_91662" data-name="Path 91662" d="M-4.7,75.011H-5c-2.973,0-5.947.006-8.92,0a12.236,12.236,0,0,1-1.217-.128,4.975,4.975,0,0,0,.763-3.638H-4.7Z" transform="translate(-100.491 -222.539)" fill="#5399ff"/>
        <path id="Path_91663" data-name="Path 91663" d="M74.739-167.271a2.927,2.927,0,0,1-2.851,2.918,2.926,2.926,0,0,1-2.839-2.9,2.927,2.927,0,0,1,2.851-2.917A2.926,2.926,0,0,1,74.739-167.271Z" transform="translate(-178.078)" fill="#5399ff"/>
        <path id="Path_91664" data-name="Path 91664" d="M-94.533,49.892a2.865,2.865,0,0,1-2.882,2.8,2.864,2.864,0,0,1-2.8-2.906A2.861,2.861,0,0,1-97.323,47,2.864,2.864,0,0,1-94.533,49.892Z" transform="translate(-21.998 -200.211)" fill="#5399ff"/>
    </g>
</svg>
