<svg id="Group_388" data-name="Group 388" xmlns="http://www.w3.org/2000/svg" width="28" height="28" viewBox="0 0 28 28">
    <path id="Path_684" data-name="Path 684" d="M0,0H28V28H0Z" fill="none"/>
    <path id="Path_685" data-name="Path 685" d="M13.363,24.727A11.363,11.363,0,1,1,24.727,13.363,11.363,11.363,0,0,1,13.363,24.727Zm7.221-6.873v-.119c0-1.048,0-1.526-.741-1.95q-.357-.2-.733-.369a2.086,2.086,0,0,1-1.066-.859q-.067-.1-.132-.2a1.455,1.455,0,0,0-1.752-.856c-2.119.336-2.276.709-2.369,1.339l-.015.1c-.137.92-.162,1.23.222,1.633a13.982,13.982,0,0,1,2.56,3.232,3.789,3.789,0,0,1,.23,2.179,9.3,9.3,0,0,0,3.581-2.542,5.635,5.635,0,0,0,.216-1.6ZM13.363,4.083a9.256,9.256,0,0,0-6.7,2.859,1.436,1.436,0,0,1,.5.607,3.618,3.618,0,0,1,.232,1.528,2.476,2.476,0,0,0,.119.983c.164.35.87.5,1.494.63.224.048.453.1.662.153a3.117,3.117,0,0,1,1.376,1.091,3.168,3.168,0,0,0,.477.489,1.155,1.155,0,0,0,.33-.566.666.666,0,0,0-.051-.591,3.32,3.32,0,0,1-.4-2.726c.309-.84,1.275-.777,1.982-.732a4.06,4.06,0,0,0,.7.01c.707-.089.925-1.165,1.078-1.375A10.1,10.1,0,0,1,17.13,4.881a9.248,9.248,0,0,0-3.767-.8Z" transform="translate(0.637 0.637)" fill="#5399ff"/>
</svg>
